REM DIRINDEX 1\2,1\3,1\4,1\5\6,1\5\7,1\8
REM DIRNAME cjc115,folder01,folder02,folder03,folder04,folder05,folder06,folder07
TITLE ""
FILE "079 Åy079ÅzUnit5 (0889 retain_0900 approximately).mp3" MP3
  TRACK 01 AUDIO
    TITLE "0:"
    INDEX 01 00:00:00
  TRACK 02 AUDIO
    TITLE "2:cjc115_3108"
    INDEX 01 00:00:07
  TRACK 03 AUDIO
    TITLE "0:"
    INDEX 01 00:01:24
  TRACK 04 AUDIO
    TITLE "3:cjc115_3109"
    INDEX 01 00:01:36
  TRACK 05 AUDIO
    TITLE "0:"
    INDEX 01 00:02:51
  TRACK 06 AUDIO
    TITLE "4:cjc115_3110"
    INDEX 01 00:02:61
  TRACK 07 AUDIO
    TITLE "0:"
    INDEX 01 00:06:30
  TRACK 08 AUDIO
    TITLE "2:cjc115_3111"
    INDEX 01 00:07:37
  TRACK 09 AUDIO
    TITLE "0:"
    INDEX 01 00:08:42
  TRACK 10 AUDIO
    TITLE "3:cjc115_3112"
    INDEX 01 00:08:50
  TRACK 11 AUDIO
    TITLE "0:"
    INDEX 01 00:10:31
  TRACK 12 AUDIO
    TITLE "4:cjc115_3113"
    INDEX 01 00:10:39
  TRACK 13 AUDIO
    TITLE "0:"
    INDEX 01 00:14:00
  TRACK 14 AUDIO
    TITLE "2:cjc115_3114"
    INDEX 01 00:15:09
  TRACK 15 AUDIO
    TITLE "0:"
    INDEX 01 00:16:30
  TRACK 16 AUDIO
    TITLE "3:cjc115_3115"
    INDEX 01 00:16:40
  TRACK 17 AUDIO
    TITLE "0:"
    INDEX 01 00:17:51
  TRACK 18 AUDIO
    TITLE "4:cjc115_3116"
    INDEX 01 00:17:61
  TRACK 19 AUDIO
    TITLE "0:"
    INDEX 01 00:21:58
  TRACK 20 AUDIO
    TITLE "2:cjc115_3117"
    INDEX 01 00:22:66
  TRACK 21 AUDIO
    TITLE "0:"
    INDEX 01 00:24:06
  TRACK 22 AUDIO
    TITLE "3:cjc115_3118"
    INDEX 01 00:24:16
  TRACK 23 AUDIO
    TITLE "0:"
    INDEX 01 00:27:00
  TRACK 24 AUDIO
    TITLE "4:cjc115_3119"
    INDEX 01 00:27:12
  TRACK 25 AUDIO
    TITLE "0:"
    INDEX 01 00:30:61
  TRACK 26 AUDIO
    TITLE "2:cjc115_3120"
    INDEX 01 00:31:71
  TRACK 27 AUDIO
    TITLE "0:"
    INDEX 01 00:33:30
  TRACK 28 AUDIO
    TITLE "3:cjc115_3121"
    INDEX 01 00:33:38
  TRACK 29 AUDIO
    TITLE "0:"
    INDEX 01 00:35:39
  TRACK 30 AUDIO
    TITLE "4:cjc115_3122"
    INDEX 01 00:35:49
  TRACK 31 AUDIO
    TITLE "0:"
    INDEX 01 00:39:45
  TRACK 32 AUDIO
    TITLE "2:cjc115_3123"
    INDEX 01 00:40:56
  TRACK 33 AUDIO
    TITLE "0:"
    INDEX 01 00:42:00
  TRACK 34 AUDIO
    TITLE "3:cjc115_3124"
    INDEX 01 00:42:10
  TRACK 35 AUDIO
    TITLE "0:"
    INDEX 01 00:43:46
  TRACK 36 AUDIO
    TITLE "4:cjc115_3125"
    INDEX 01 00:43:54
  TRACK 37 AUDIO
    TITLE "0:"
    INDEX 01 00:48:51
  TRACK 38 AUDIO
    TITLE "2:cjc115_3126"
    INDEX 01 00:49:63
  TRACK 39 AUDIO
    TITLE "0:"
    INDEX 01 00:51:07
  TRACK 40 AUDIO
    TITLE "3:cjc115_3127"
    INDEX 01 00:51:15
  TRACK 41 AUDIO
    TITLE "0:"
    INDEX 01 00:52:16
  TRACK 42 AUDIO
    TITLE "4:cjc115_3128"
    INDEX 01 00:52:26
  TRACK 43 AUDIO
    TITLE "0:"
    INDEX 01 00:56:61
  TRACK 44 AUDIO
    TITLE "2:cjc115_3129"
    INDEX 01 00:57:70
  TRACK 45 AUDIO
    TITLE "0:"
    INDEX 01 00:59:18
  TRACK 46 AUDIO
    TITLE "3:cjc115_3130"
    INDEX 01 00:59:32
  TRACK 47 AUDIO
    TITLE "0:"
    INDEX 01 01:00:66
  TRACK 48 AUDIO
    TITLE "4:cjc115_3131"
    INDEX 01 01:00:72
  TRACK 49 AUDIO
    TITLE "0:"
    INDEX 01 01:04:39
  TRACK 50 AUDIO
    TITLE "2:cjc115_3132"
    INDEX 01 01:05:46
  TRACK 51 AUDIO
    TITLE "0:"
    INDEX 01 01:06:63
  TRACK 52 AUDIO
    TITLE "3:cjc115_3133"
    INDEX 01 01:06:71
  TRACK 53 AUDIO
    TITLE "0:"
    INDEX 01 01:08:40
  TRACK 54 AUDIO
    TITLE "4:cjc115_3134"
    INDEX 01 01:08:42
  TRACK 55 AUDIO
    TITLE "0:"
    INDEX 01 01:13:34
  TRACK 56 AUDIO
    TITLE "2:cjc115_3135"
    INDEX 01 01:14:45
  TRACK 57 AUDIO
    TITLE "0:"
    INDEX 01 01:15:58
  TRACK 58 AUDIO
    TITLE "3:cjc115_3136"
    INDEX 01 01:15:70
  TRACK 59 AUDIO
    TITLE "0:"
    INDEX 01 01:17:04
  TRACK 60 AUDIO
    TITLE "4:cjc115_3137"
    INDEX 01 01:17:12
  TRACK 61 AUDIO
    TITLE "0:"
    INDEX 01 01:20:57
  TRACK 62 AUDIO
    TITLE "2:cjc115_3138"
    INDEX 01 01:21:69
  TRACK 63 AUDIO
    TITLE "0:"
    INDEX 01 01:23:28
  TRACK 64 AUDIO
    TITLE "3:cjc115_3139"
    INDEX 01 01:23:36
  TRACK 65 AUDIO
    TITLE "0:"
    INDEX 01 01:24:45
  TRACK 66 AUDIO
    TITLE "4:cjc115_3140"
    INDEX 01 01:24:51
  TRACK 67 AUDIO
    TITLE "0:"
    INDEX 01 01:30:67
  TRACK 68 AUDIO
    TITLE "2:cjc115_3141"
    INDEX 01 01:32:02
  TRACK 69 AUDIO
    TITLE "0:"
    INDEX 01 01:33:40
  TRACK 70 AUDIO
    TITLE "3:cjc115_3142"
    INDEX 01 01:33:50
  TRACK 71 AUDIO
    TITLE "0:"
    INDEX 01 01:34:48
  TRACK 72 AUDIO
    TITLE "4:cjc115_3143"
    INDEX 01 01:34:57
  TRACK 73 AUDIO
    TITLE "0:"
    INDEX 01 01:38:49
